<?xml version="1.0" encoding="utf-8"?>
<!-- Generator: Adobe Illustrator 24.0.3, SVG Export Plug-In . SVG Version: 6.00 Build 0)  -->
<svg version="1.1" id="Layer_1" xmlns="http://www.w3.org/2000/svg" xmlns:xlink="http://www.w3.org/1999/xlink" x="0px" y="0px"
	 viewBox="0 0 808.06 344.65" style="enable-background:new 0 0 808.06 344.65;" xml:space="preserve">
<style type="text/css">
	.st0{fill:#FFFFFF;}
	.st1{fill:none;}
</style>
<g>
	<path class="st0" d="M331.17,170.11v46.15c0,18.97-7.79,27.81-24.51,27.81c-19.37,0-23.44-15.12-23.44-27.81v-46.15h-5.65v46.15
		c0,21.78,9.79,32.82,29.09,32.82c20.01,0,30.16-11.05,30.16-32.82v-46.15h-0.47H331.17z"/>
	<path class="st0" d="M373.4,190.16c-8.67,0-16.19,4.66-19.38,11.72c0-2.56,0-10.43,0-10.43h-5.01v55.83h5.01v-30.17
		c0-13.65,7.56-22.47,19.27-22.47c15.11,0,15.11,13.14,15.11,17.47v35.17h5.01v-34.43C393.4,206.64,393.4,190.16,373.4,190.16z"/>
	<polygon class="st0" points="405.8,191.44 405.8,247.28 410.81,247.28 410.81,191.44 410.33,191.44 	"/>
	<polygon class="st0" points="405.8,174.36 405.8,181.89 410.81,181.89 410.81,174.36 410.33,174.36 	"/>
	<path class="st0" d="M460.5,191.44c0,0-17.73,47.89-18.36,49.61c-0.67-1.7-19.63-49.61-19.63-49.61h-5.72l22.48,55.83h5.67
		l21.07-55.83h-0.69H460.5z"/>
	<path class="st0" d="M493.28,190.16c-6.49,0-12.17,2.29-16.43,6.6c-5.39,5.48-8.41,14.06-8.28,23.56
		c-0.12,8.76,2.58,16.41,7.63,21.52c4.32,4.39,10.23,6.71,17.08,6.71c13.41,0,22-7.2,24.17-20.26l0.1-0.55h-5l-0.07,0.39
		c-1.9,9.98-9.07,15.94-19.19,15.94c-5.28,0-9.71-1.77-13.14-5.27c-4.18-4.25-6.56-10.91-6.56-18.32c0-0.03,0-0.07,0-0.11
		c0.92,0,44.29,0,44.29,0l0.02-0.46c0.03-0.71,0.05-1.4,0.05-2.09c0-8.54-2.54-15.89-7.24-20.81
		C506.36,192.47,500.51,190.16,493.28,190.16z M493.28,194.64c12.41,0,19.16,10.61,19.55,21.25c-1,0-38.12,0-39.17,0
		C474.69,205.25,481.66,194.64,493.28,194.64z"/>
	<path class="st0" d="M531.87,202.52c0-2.39,0-11.08,0-11.08h-5v55.83h5v-30.49c0.44-8.36,2.23-11.52,6.06-15.47
		c5.91-5.78,12.8-5.44,14.76-5.2l0.54,0.07v-5.04l-0.46-0.02C543.62,190.72,534.85,195.66,531.87,202.52z"/>
	<path class="st0" d="M579.64,216.33c0.01,0.01-1.69-0.36-1.69-0.36c-8.32-1.77-16.17-3.43-16.17-11.24
		c0-7.44,7.91-10.09,15.32-10.09c5.83,0,15.63,1.75,15.76,13.52l0,0.47h5v-0.47c0-11.61-7.37-18-20.76-18
		c-4.77,0-20.33,1.06-20.33,14.57c0,12.16,11.14,14.41,19.27,16.06l1.45,0.29c8.72,1.75,16.97,3.42,16.97,11.84
		c0,10.07-11.84,11.16-16.93,11.16c-10.14,0-17.08-6.11-17.67-15.56l-0.03-0.45h-4.99l0.01,0.49c0.31,12.34,9,20,22.68,20
		c5.15,0,21.93-1.13,21.93-15.64C599.46,220.98,590.48,218.35,579.64,216.33z"/>
	<polygon class="st0" points="609.72,191.44 609.72,247.28 614.73,247.28 614.73,191.44 614.25,191.44 	"/>
	<path class="st0" d="M636.29,191.44c0-0.89,0-17.08,0-17.08h-0.47h-4.54c0,0,0,16.18,0,17.08c-0.86,0-10.14,0-10.14,0v4.48
		c0,0,9.28,0,10.14,0c0,0.93,0,37.85,0,37.85c-0.01,0.32-0.02,0.64-0.02,0.95c0,4.3,1.05,7.42,3.22,9.52
		c3.32,3.23,8.8,3.31,13.21,3.04l0.44-0.03v-4.46l-0.49,0.01c-4.53,0.12-7.51-0.15-9.31-1.88c-1.4-1.36-2.05-3.63-2.05-7.15
		c0,0,0-36.92,0-37.85c0.76,0,10.93,0,13.93,0c5.49,13.04,21.16,50.29,21.27,50.57c-2.47,6.99-3.96,11.04-5.48,12.56
		c-2.59,2.6-5.18,3.39-11.09,3.39h-0.48v4.47h0.48c6.11,0,10.04-0.17,13.1-2.55c2.37-1.83,4.13-5.75,6.55-11.52
		c0-0.01,23.74-61.41,23.74-61.41h-0.69h-4.92c0,0-17.67,47.07-18.48,49.24c-0.87-2.15-20.05-49.24-20.05-49.24H636.29z"/>
	<polygon class="st0" points="609.71,174.36 609.71,181.89 614.73,181.89 614.73,174.36 614.25,174.36 	"/>
</g>
<g>
	<path class="st0" d="M404.3,157.55c-22.19-0.46-40.84-17.49-40.27-41.04c0.58-18.52,15.46-39.56,42.55-38.76
		c18.86,0.35,40.03,14.52,39.46,40.58C445.47,144.4,423.38,158.13,404.3,157.55z M405.09,82.56c-16.92,0-28.72,12.46-28.72,33.38
		c0,25.04,14.88,36.35,28.95,36.35c16.92,0,28.15-13.02,28.15-33.61C433.69,96.62,422.24,82.56,405.09,82.56z"/>
	<path class="st0" d="M730.32,79.87v-1.1h-22.18v1.1c4.39,0.29,5.6,1.15,5.6,7.38v27.06h-39.79V87.26c0-6.23,1.21-7.09,5.6-7.38
		v-1.1h-22.18v1.1c4.39,0.29,5.6,1.15,5.6,7.38v60.76c0,6.24-1.21,7.12-5.6,7.4v1.09h22.18v-1.09c-4.39-0.28-5.6-1.16-5.6-7.4
		v-29.01h39.79v29.01c0,6.24-1.22,7.12-5.6,7.4v1.09h22.18v-1.09c-4.39-0.28-5.6-1.16-5.6-7.4V87.26
		C724.72,81.02,725.93,80.16,730.32,79.87z"/>
	<path class="st0" d="M451.91,78.77v1.1c4.27,0.23,5.48,0.7,5.48,5.19v62.96c0,6.24-1.21,7.12-5.6,7.4v1.09h16.74v-1.09
		c-4.39-0.28-5.61-1.16-5.61-7.4V91.46c0,1.03,43.29,53.7,52.64,65.05h1.79V85.06c0-4.49,1.21-4.96,5.48-5.19v-1.1h-16.46v1.1
		c4.27,0.23,5.49,0.7,5.49,5.19v49.39l-45.16-55.68H451.91z"/>
	<path class="st0" d="M560.99,78.77h-1.55c-3.94,9.34-22.12,52.39-28.46,67.27c-1.1,2.55-2.86,6.67-4.18,8.11
		c-1.04,1.1-2.02,1.22-2.94,1.27v1.09h14.78v-1.09c-1.17,0-3.71-0.02-3.89-2.2c-0.01-0.69,0.13-1.44,0.42-2.3
		c0.46-1.38,3.43-8.92,7.21-17.5h29.61c2.91,7.24,5.58,13.42,6.81,16.16l0,0c0.35,0.81,1.1,2.71,1.1,3.63c0,2.15-1.91,2.2-4.04,2.2
		v1.09h20.66v-1.09c-2.54-0.17-3.35-0.81-5.2-5.01L560.99,78.77z M544.32,128.5c5.03-12.35,12.81-32.01,12.81-32.01
		s6.97,17.6,12.92,32.01H544.32z"/>
	<path class="st0" d="M273.56,78.77v1.1c2.39,0.13,3.8,0.36,4.6,1.3c0.23,0.37,0.46,0.75,0.61,1.15c0,0,0,0.01,0,0.01
		c0.14,0.4,0.19,0.83,0.22,1.25c0.04,0.44,0.06,0.93,0.06,1.48v62.96c0,6.24-1.21,7.12-5.6,7.4v1.09h16.58v-1.09
		c-4.39-0.28-5.6-1.16-5.6-7.4V94.1c0-1.03-0.23-2.98-0.23-2.98l1.03,2.98l26.85,62.12h1.63l27.42-63.96l0.8-2.63
		c0,0-0.23,1.26-0.23,2.41v55.98c0,6.24-1.21,7.12-5.59,7.4v1.09h22.18v-1.09c-4.39-0.28-5.6-1.16-5.6-7.4V85.06
		c0-4.49,1.21-4.96,5.48-5.19v-1.1H340.9l-24.81,58.65l-25.15-58.65H273.56z"/>
	<path class="st0" d="M600.42,151.28c5.22,3.14,12.95,6.43,21.14,6.4c0.16,0,0.31-0.01,0.47-0.01c12.13-0.17,24.92-9.15,24.92-23.3
		c0-15.32-10.75-18.87-21.61-24.47c-10.97-5.37-15.55-8.12-15.55-15.32c0-4.92,2.97-12.11,12.69-12.11c3.09,0,5.81,0.78,8.17,2.02
		c7.87,4.37,8.25,10.55,9.27,14.47h1.15l-0.67-17.31c-5-2.09-8.98-3.03-11.77-3.44c-1.68-0.22-3.24-0.31-4.55-0.31
		c-10.86,0-23.66,6.52-23.66,20.23c0,9.37,5.6,15.21,16.69,20.69c10.97,5.6,19.32,7.78,19.32,18.75c0,5.61-3.2,15.31-15.54,15.31
		c-4.93,0-8.86-1.71-11.96-4.29c-7.32-6.92-7.15-12.4-7.71-14.45h-1.14L600.42,151.28"/>
</g>
<g>
	<g>
		<path class="st0" d="M221.96,166.35l-0.56,1.93c-0.67,2.29-1.41,4.5-2.19,6.65l-5.02-4.51l-0.61,1.82
			c-2.65,7.92-6.14,15.35-10.37,22.07c-10.93,17.46-26.29,30.21-44.42,36.84c0,0-1.29,0.47-1.85,0.66
			c-0.56-0.19-1.86-0.66-1.86-0.66c-18.12-6.64-33.49-19.38-44.42-36.85c-4.2-6.68-7.7-14.12-10.36-22.07l-0.61-1.82l-1.42,1.28
			l-3.57,3.2c-0.78-2.14-1.55-4.32-2.22-6.62l-0.55-1.93l-1.49,1.35l-12.54,11.28l0.25,0.77c2.98,9.57,7.88,19.36,11.47,25.87
			l0.76,1.4l5.17-4.66c0.2,0.34,0.37,0.71,0.59,1.05c13.01,20.72,31.36,35.87,53.07,43.82l7.74,2.84l7.74-2.84
			c21.72-7.96,40.07-23.1,53.06-43.81c0.21-0.34,0.39-0.72,0.59-1.05l5.15,4.65l0.76-1.4c3.58-6.45,8.47-16.18,11.48-25.88
			l0.24-0.76L221.96,166.35z M80.81,179.75c0.99-0.88,7.9-7.1,9.93-8.94c0.63,2.03,1.33,3.95,2.02,5.85l-6.86,6.17l2.35,14.77
			C85.6,192.24,82.82,186,80.81,179.75z M91.6,202.55l-1.7-10.68c1.36,2.83,2.84,5.56,4.4,8.25
			C93.25,201.05,92.26,201.96,91.6,202.55z M222.28,202.55c-0.67-0.61-1.62-1.46-2.67-2.42c0.01-0.02,0.02-0.04,0.03-0.05
			c1.53-2.65,3-5.35,4.36-8.17L222.28,202.55z M215.62,202.1c-12.69,20.22-30.6,35.01-51.79,42.78c0,0-6.12,2.23-6.88,2.51
			c-0.76-0.29-6.88-2.52-6.88-2.52c-21.18-7.76-39.1-22.56-51.8-42.8c-3.63-5.82-6.73-12.11-9.33-18.61c1.1-0.99,7.73-6.95,9.68-8.7
			c2.64,7.47,5.92,14.51,9.94,20.88c11.22,17.94,27.01,31.03,45.68,37.87c0.01,0,2.71,0.97,2.71,0.97l2.7-0.97
			c18.67-6.83,34.47-19.93,45.7-37.87c4.01-6.39,7.29-13.43,9.92-20.88c1.96,1.75,8.58,7.71,9.68,8.7
			C222.31,190.06,219.21,196.35,215.62,202.1z M225.62,197.62l2.37-14.8l-6.84-6.15c0.7-1.9,1.38-3.84,2.01-5.87
			c2.04,1.85,8.95,8.06,9.92,8.94C231.06,186.07,228.27,192.3,225.62,197.62z"/>
		<path class="st0" d="M102.32,195.43l2.03-2.23l-0.17-0.67c-0.36-0.38-0.74-0.74-1.1-1.16c-2.13,0.37-5.37,0.91-6.88,0.97
			l-0.4-0.46l-0.42,0.24c0.21,0.35,0.41,0.68,0.6,1.02c0.23,0.4,0.44,0.83,0.65,1.23l0.41-0.23l-0.19-0.59l2.17-0.49l1.14,2.05
			c-0.4,0.51-1.1,1.21-1.54,1.61l-0.42-0.47l-0.41,0.21c0.28,0.53,0.59,1.02,0.87,1.53c0.26,0.47,0.52,0.97,0.77,1.46l0.41-0.24
			l-0.18-0.58C100.07,198.06,101.34,196.52,102.32,195.43z M99.91,192.89l2.81-0.55l0,0.01l-1.94,2.1L99.91,192.89z"/>
		<path class="st0" d="M112.2,205.85l0.38-0.29c-0.26-0.34-0.53-0.66-0.78-1.01c-0.26-0.34-0.49-0.71-0.73-1.07l-0.39,0.28
			l0.29,0.63c-0.99,0.82-3.66,2.79-3.66,2.79l-0.01-0.02c0.67-1.85,1.47-3.97,2.17-5.88c-0.25-0.32-0.49-0.63-0.72-0.95
			c-0.23-0.32-0.44-0.65-0.68-0.98l-0.39,0.26l0.3,0.62c-0.48,0.4-0.96,0.8-1.59,1.25l-1.71,1.23c-0.63,0.45-1.15,0.8-1.7,1.12
			l-0.49-0.48l-0.39,0.28c0.27,0.36,0.53,0.69,0.79,1.05c0.25,0.35,0.48,0.69,0.73,1.05l0.38-0.28l-0.29-0.6
			c0.99-0.83,2.47-1.92,3.65-2.78l0.02,0c-0.75,1.94-1.44,3.93-2.21,5.98c0.18,0.23,0.36,0.45,0.52,0.68
			c0.17,0.22,0.32,0.48,0.43,0.65c0.56-0.46,1.28-1.01,2.17-1.65l1.7-1.23c0.63-0.45,1.15-0.8,1.7-1.12L112.2,205.85z"/>
		<path class="st0" d="M112.68,211.64c-1.68,1.55-1.51,3.85-0.18,5.3c0.91,1,1.95,1.59,3.64,1.73l0.12-0.87
			c-0.97-0.14-1.67-0.52-2.14-1.04c-1.04-1.11-1.11-2.71,0.17-3.88c1.29-1.19,2.63-0.8,3.44,0.08c0.38,0.42,0.71,1.09,0.82,1.66
			l-0.38,0.46l0.34,0.41c0.41-0.37,1.04-0.75,1.57-0.93c-0.38-0.87-0.82-1.55-1.45-2.24C116.89,210.42,114.41,210.04,112.68,211.64z
			"/>
		<path class="st0" d="M126.96,220.18c-2.05-1.72-4.36-1.44-5.72,0.19c-1.56,1.88-1.2,3.97,0.83,5.65c2.05,1.72,4.36,1.43,5.71-0.2
			C129.35,223.96,128.98,221.86,126.96,220.18z M126.23,224.55c-1.02,1.22-2.44,1.58-3.51,0.69c-1.06-0.9-0.96-2.35,0.07-3.58
			c1.02-1.22,2.44-1.58,3.5-0.69C127.37,221.85,127.26,223.31,126.23,224.55z"/>
		<path class="st0" d="M137.46,227.87c-0.44-0.27-0.89-0.53-1.33-0.79c-0.44-0.26-0.89-0.51-1.3-0.78
			c-0.37-0.23-0.73-0.48-1.09-0.72l-0.26,0.41l0.5,0.45c-0.28,0.58-0.58,1.11-1,1.77l-1.11,1.8c-0.42,0.64-0.77,1.15-1.16,1.66
			l-0.64-0.26l-0.25,0.41c0.5,0.29,0.99,0.58,1.47,0.88c0.46,0.29,0.94,0.61,1.43,0.93l0.24-0.4l-0.49-0.47
			c0.27-0.55,0.58-1.1,0.98-1.76l0.36-0.57l0.47,0.3c0.12,1.11,0.23,2.93,0.31,4.25c0.66,0.31,1.34,0.66,1.98,1.07l0.26-0.41
			l-0.21-0.28c-0.11-0.51-0.46-3.13-0.57-3.85c1,0.42,2.05,0.25,2.61-0.64C139.2,230.03,139.22,228.98,137.46,227.87z
			 M136.93,229.86c-0.45,0.72-1.17,0.7-2.07,0.14c-0.19-0.12-0.38-0.26-0.52-0.39l0.31-0.51c0.33-0.52,0.63-0.97,0.83-1.24
			c0.28,0.12,0.48,0.23,0.88,0.48C137.11,228.81,137.27,229.31,136.93,229.86z"/>
		<path class="st0" d="M148.29,233.64l-0.54-0.44c-0.51-0.08-1.02-0.14-1.57-0.27c-1.48,1.58-3.78,3.94-4.95,4.88l-0.58-0.13
			l-0.2,0.43c0.36,0.16,0.73,0.31,1.08,0.47c0.42,0.18,0.85,0.4,1.26,0.6l0.2-0.43l-0.52-0.37l1.45-1.68l2.14,0.96
			c-0.02,0.64-0.17,1.62-0.28,2.23l-0.63-0.15l-0.19,0.42c0.53,0.24,1.08,0.46,1.6,0.71c0.5,0.22,1,0.47,1.49,0.71l0.2-0.43
			l-0.51-0.36c-0.02-0.69,0.1-2.69,0.24-4.14L148.29,233.64z M146.17,236.78l-1.63-0.74l1.92-2.12h0.02L146.17,236.78z"/>
		<path class="st0" d="M169.35,239.32c-0.31-0.56-0.59-1.11-0.91-1.82l-0.85-1.92c-0.31-0.71-0.53-1.28-0.73-1.89l0.56-0.39
			l-0.19-0.43c-0.52,0.24-1.04,0.49-1.54,0.72c-0.52,0.22-1.05,0.43-1.58,0.67l0.19,0.43l0.66-0.15c0.31,0.55,0.59,1.09,0.9,1.82
			l0.85,1.91c0.31,0.71,0.53,1.28,0.73,1.88l-0.56,0.39l0.19,0.43c0.53-0.25,1.03-0.49,1.56-0.72c0.51-0.23,1.04-0.44,1.57-0.66
			l-0.2-0.43L169.35,239.32z"/>
		<path class="st0" d="M182.56,232.12c-0.37-0.5-0.72-1.03-1.11-1.69l-1.09-1.81c-0.39-0.66-0.68-1.21-0.95-1.78l0.51-0.46
			l-0.25-0.4c-0.42,0.27-0.84,0.54-1.28,0.8c-0.43,0.25-0.88,0.51-1.33,0.76c0.26,0.94,0.98,4.59,1.13,5.35
			c-0.81-0.55-3.47-2.84-4.21-3.51c-0.42,0.27-0.84,0.54-1.26,0.8c-0.42,0.25-0.87,0.5-1.3,0.74l0.24,0.42l0.59-0.21l0.51,0.86
			c0.51,0.84,2.15,3.66,2.54,4.47l-0.51,0.46l0.25,0.39c0.36-0.22,0.71-0.45,1.08-0.67c0.37-0.23,0.75-0.43,1.13-0.65l-0.24-0.41
			l-0.64,0.25c-0.38-0.51-0.73-1.02-1.12-1.69l-0.63-1.06c-0.53-0.88-0.89-1.52-1.07-1.85l0.02-0.02c2.71,2.25,4.14,3.44,4.86,4.06
			l0.99-0.58l-1.26-6.23l0.01-0.01c0.21,0.31,0.59,0.93,1.13,1.82l0.62,1.05c0.39,0.67,0.69,1.21,0.96,1.77l-0.51,0.46l0.25,0.41
			c0.47-0.31,0.95-0.6,1.44-0.91c0.48-0.3,0.99-0.57,1.49-0.86l-0.24-0.4L182.56,232.12z"/>
		<path class="st0" d="M189.7,226.83c-0.45-0.46-0.85-0.92-1.34-1.52l-0.96-1.19c-0.41-0.5-0.94-1.15-1.3-1.68
			c0.12-0.2,0.34-0.44,0.6-0.66c0.75-0.6,1.46-0.53,1.94,0.08c0.49,0.61,0.62,1.33-0.12,1.92c-0.15,0.13-0.31,0.23-0.45,0.31
			l0.34,0.91c0.31-0.16,0.63-0.39,0.93-0.63c1.56-1.26,1.6-2.87,0.74-3.92c-0.82-1-1.96-1.08-3.24-0.03
			c-0.31,0.25-0.67,0.56-1.12,0.94c-0.46,0.39-0.88,0.75-1.21,1.02c-0.33,0.26-0.74,0.57-1.2,0.93l0.3,0.37l0.6-0.33
			c0.44,0.44,0.85,0.91,1.35,1.52l1.32,1.63c0.49,0.61,0.86,1.1,1.2,1.63l-0.44,0.52l0.29,0.37c0.44-0.38,0.88-0.74,1.31-1.12
			c0.43-0.34,0.89-0.68,1.57-1.22l-0.3-0.37L189.7,226.83z"/>
		<path class="st0" d="M201.4,215.92c-0.65-0.2-2.49-1-3.81-1.62l-2.72-1.3l-0.59,0.37c-0.24,0.45-0.49,0.9-0.8,1.38
			c0.98,1.92,2.42,4.89,2.91,6.3l-0.32,0.5l0.34,0.33c0.27-0.28,0.52-0.59,0.8-0.86c0.33-0.32,0.68-0.65,1-0.98l-0.33-0.33
			l-0.53,0.36l-1.1-1.94l1.65-1.7c0.58,0.24,1.47,0.72,1.99,1.02l-0.35,0.54l0.34,0.33c0.4-0.42,0.79-0.86,1.2-1.28
			c0.38-0.4,0.79-0.78,1.18-1.16l-0.35-0.33L201.4,215.92z M195.84,217.35l-1.34-2.52l0.01-0.02l2.57,1.27L195.84,217.35z"/>
		<path class="st0" d="M209.58,205.76c-0.51,0.06-3.17,0.17-3.88,0.21c0.51-0.95,0.43-2.01-0.4-2.66c-0.78-0.61-1.83-0.71-3.09,0.94
			c-0.31,0.4-0.61,0.81-0.92,1.23c-0.3,0.42-0.6,0.83-0.9,1.23c-0.26,0.35-0.55,0.69-0.82,1.02l0.38,0.29l0.5-0.46
			c0.55,0.33,1.04,0.69,1.67,1.16l1.67,1.27c0.61,0.47,1.08,0.88,1.54,1.3l-0.3,0.6l0.37,0.29c0.34-0.46,0.67-0.92,1.01-1.38
			c0.35-0.45,0.71-0.88,1.07-1.34l-0.38-0.28l-0.51,0.45c-0.54-0.32-1.05-0.67-1.66-1.15l-0.54-0.42l0.34-0.44
			c1.1-0.02,2.94,0.05,4.26,0.09c0.37-0.61,0.78-1.27,1.25-1.87l-0.38-0.29L209.58,205.76z M204.08,207.03
			c-0.14,0.17-0.29,0.34-0.44,0.47l-0.48-0.36c-0.48-0.36-0.89-0.71-1.15-0.93c0.15-0.28,0.28-0.46,0.56-0.85
			c0.53-0.69,1.05-0.79,1.56-0.4C204.81,205.46,204.71,206.19,204.08,207.03z"/>
		<path class="st0" d="M214.03,192.77c-2.1-1.25-4.1-0.54-5.45,1.73c-1.36,2.29-0.7,4.54,1.12,5.61c2.11,1.24,4.12,0.54,5.46-1.73
			C216.52,196.07,215.86,193.84,214.03,192.77z M214.28,197.85c-0.71,1.21-2.17,1.34-3.54,0.53c-1.39-0.81-1.97-2.15-1.26-3.36
			c0.7-1.21,2.17-1.34,3.54-0.53C214.39,195.32,214.99,196.66,214.28,197.85z"/>
		<path class="st0" d="M156.95,238.4c-0.9,0-1.62,0.74-1.62,1.62c0,0.92,0.72,1.67,1.62,1.67c0.9,0,1.65-0.75,1.65-1.67
			C158.6,239.14,157.85,238.4,156.95,238.4z"/>
		<path class="st0" d="M96.6,186.81c0.91,0,1.64-0.74,1.64-1.64c0-0.9-0.73-1.65-1.64-1.65c-0.91,0-1.65,0.75-1.65,1.65
			C94.95,186.07,95.69,186.81,96.6,186.81z"/>
		<path class="st0" d="M217.6,186.81c0.91,0,1.65-0.74,1.65-1.64c0-0.9-0.73-1.65-1.65-1.65c-0.91,0-1.66,0.75-1.66,1.65
			C215.94,186.07,216.69,186.81,217.6,186.81z"/>
	</g>
	<path class="st0" d="M215.04,78.78L98.86,78.77v1.27v58.32c0,9.78,1.45,19.54,4.24,29.01l-0.02,0.03l0.23,0.75l0.57,1.9
		c0,0,0.05-0.04,0.08-0.07c1.81,5.55,4.06,10.94,6.76,16.02l-0.04,0.04l0.47,0.87l0.76,1.4l0.04-0.04
		c10.41,18.41,26.15,32.27,44.56,38.99l0.43,0.17l0.43-0.17c18.42-6.73,34.17-20.57,44.56-38.99c0,0,0.04,0.04,0.04,0.04l0.77-1.4
		l0.46-0.87l-0.04-0.04c2.7-5.06,4.95-10.46,6.77-16.03c0.03,0.04,0.08,0.08,0.08,0.08l0.57-1.9l0.23-0.75l-0.02-0.03
		c2.8-9.54,4.25-19.29,4.25-29.01V78.78z M200.58,185.74c0,0-0.76,1.39-0.79,1.31c-10.03,17.79-25.23,31.13-42.85,37.7
		c-17.57-6.55-32.78-19.89-42.86-37.62c0,0-0.76-1.39-0.76-1.4c0,0-0.43-0.78-0.43-0.89c0,0,0-0.01,0-0.01
		c-0.09-0.16-0.17-0.34-0.25-0.5l34.65-31.19c5.62-5.05,9.65-8.67,9.65-8.67l44.34,39.9c-0.08,0.16-0.16,0.33-0.24,0.49
		C201.04,184.87,200.57,185.75,200.58,185.74z M212.58,138.36c0,9.42-1.39,18.94-4.11,28.31c0,0-0.24,0.77-0.25,0.79
		c0,0-0.12,0.4-0.25,0.83c-6.04-5.43-49.51-44.57-51.02-45.94c-0.09,0.08-0.34,0.31-0.71,0.64c-0.13,0.12-0.31,0.27-0.48,0.45
		c-6.69,6.01-40.07,36.09-49.84,44.86c-0.13-0.44-0.26-0.84-0.26-0.84c0,0-0.21-0.7-0.21-0.77v-0.01
		c-2.75-9.31-4.15-18.84-4.15-28.31c0,0,0-54.81,0-57.12c4.62,0,106.66,0,111.27,0C212.58,85.75,212.58,138.36,212.58,138.36z"/>
	<path class="st0" d="M140.88,187.59l-0.07,4.01l-3.19-2.46l-3.2,2.46l-0.07-4.01l-3.9-0.99l3.11-2.54l-1.69-3.68l3.95,0.81
		l1.8-3.58l1.82,3.58l3.94-0.81l-1.69,3.68l3.11,2.54L140.88,187.59z M162.81,215.87l-4-1.52l-1.77,3.93l-1.76-3.93l-3.99,1.52
		l1.48-4.04l-3.88-1.81l3.88-1.76l-1.48-4.03l3.99,1.48l1.76-3.91l1.77,3.91l4-1.48l-1.49,4.03l3.86,1.77l-3.86,1.8L162.81,215.87z
		 M151.19,162.04l3.95,0.83l1.81-3.6l1.82,3.6l3.94-0.83l-1.68,3.66l3.11,2.57l-3.92,0.96l-0.08,4.03l-3.19-2.45l-3.2,2.45
		l-0.06-4.03l-3.93-0.96l3.13-2.57L151.19,162.04z M167.08,194.57l-3.1-1.57l-3.09,1.57l0.55-3.45l-2.46-2.43l3.42-0.55l1.57-3.08
		l1.59,3.08l3.41,0.55l-2.44,2.43L167.08,194.57z M179.74,181.92l-3.53-0.04l-1.73,3.07l-1.72-3.07l-3.52,0.04l1.81-3.02l-1.81-3.06
		l3.52,0.07l1.72-3.07l1.73,3.07l3.53-0.07l-1.82,3.06L179.74,181.92z"/>
	<g>
		<path class="st0" d="M105.99,91.09h2.34l-0.14,0.6c-0.02,0.05-0.02,0.14-0.02,0.2v28.1c2.75,0,16.7-0.03,17.46-0.03
			c0.31,0.52,0.66,0.61,1.44,0.61c0.78,0,1.16-0.08,1.48-0.61c0.82,0,16.01,0.03,17.41,0.03v-28.1c0-0.06-0.02-0.14-0.03-0.18
			l-0.14-0.61h1.72h0.65v31.06c0,0-18.19,0-18.74,0c-0.4,0.76-1.2,1.36-2.35,1.36c-1.15,0-1.95-0.6-2.35-1.36
			c-0.55,0-18.73,0-18.73,0V91.09z"/>
		<path class="st0" d="M122.19,88.7c-1.67-0.07-3.46,0.4-5.35,0.88c-2.18,0.55-4.43,1.1-6.75,0.96c0,0.08,0,0.28,0,0.55
			c0,3.91,0,25.67,0,26.72c2.15,0.15,4.33-0.37,6.44-0.91c1.99-0.52,3.87-1,5.71-0.93c1.7,0.05,3.03,0.45,4.19,1.19V91.09v-0.96
			C125.6,89.44,124.43,88.77,122.19,88.7z M124.83,112.9c-0.67-0.26-1.52-0.46-2.64-0.47c-1.66-0.07-3.44,0.39-5.32,0.87
			c-1.66,0.42-3.37,0.85-5.11,0.97v-1.31c1.61-0.12,3.22-0.51,4.79-0.92c1.98-0.52,3.84-1,5.68-0.92c0.98,0.02,1.83,0.15,2.6,0.4
			V112.9z M124.83,109.73c-0.67-0.28-1.51-0.46-2.64-0.5c-1.66-0.05-3.44,0.41-5.32,0.89c-1.67,0.43-3.36,0.85-5.11,0.97v-1.3
			c1.61-0.13,3.21-0.54,4.79-0.93c1.98-0.51,3.84-0.98,5.69-0.92c0.98,0.04,1.83,0.17,2.6,0.42V109.73z M124.83,106.55
			c-0.67-0.26-1.51-0.44-2.64-0.46c-1.66-0.06-3.43,0.39-5.31,0.87c-1.66,0.44-3.38,0.87-5.13,0.98v-1.31
			c1.61-0.12,3.23-0.53,4.81-0.92c1.97-0.5,3.83-0.99,5.66-0.92c0.99,0.02,1.84,0.15,2.6,0.4V106.55z M124.83,103.41
			c-0.67-0.25-1.51-0.44-2.64-0.49c-1.66-0.06-3.44,0.38-5.33,0.87c-1.66,0.43-3.36,0.85-5.1,0.96v-1.29
			c1.6-0.12,3.21-0.52,4.79-0.94c1.98-0.51,3.84-0.98,5.69-0.92c0.98,0.04,1.83,0.17,2.59,0.42V103.41z M124.83,100.23
			c-0.67-0.26-1.51-0.44-2.64-0.49c-1.66-0.05-3.43,0.39-5.31,0.89c-1.66,0.43-3.38,0.85-5.13,0.97v-1.31
			c1.61-0.12,3.23-0.53,4.81-0.93c1.97-0.5,3.82-0.97,5.67-0.91c0.98,0.04,1.83,0.17,2.59,0.41V100.23z M124.83,97.09
			c-0.67-0.26-1.52-0.46-2.64-0.49c-1.66-0.05-3.44,0.4-5.33,0.88c-1.66,0.43-3.36,0.86-5.1,0.98v-1.31
			c1.6-0.11,3.21-0.52,4.78-0.92c1.98-0.51,3.85-0.98,5.69-0.93c0.98,0.04,1.83,0.18,2.6,0.42V97.09z M124.83,93.92
			c-0.67-0.25-1.51-0.45-2.64-0.5c-1.66-0.05-3.44,0.41-5.33,0.88c-1.65,0.43-3.36,0.85-5.1,0.98v-1.31
			c1.6-0.11,3.21-0.53,4.78-0.93c1.98-0.5,3.85-0.97,5.7-0.91c0.98,0.03,1.83,0.18,2.59,0.41V93.92z"/>
		<path class="st0" d="M127.72,90.13v0.96v26.08c1.16-0.74,2.49-1.14,4.19-1.19c1.84-0.07,3.72,0.41,5.71,0.93
			c2.11,0.54,4.28,1.06,6.43,0.91c0-1.05,0-22.82,0-26.72c0-0.27,0-0.47,0-0.55c-2.32,0.15-4.57-0.41-6.75-0.96
			c-1.9-0.48-3.68-0.95-5.35-0.88C129.71,88.77,128.54,89.44,127.72,90.13z M129.31,111.52c0.77-0.25,1.62-0.38,2.6-0.4
			c1.84-0.07,3.7,0.41,5.68,0.92c1.57,0.4,3.18,0.8,4.79,0.92v1.31c-1.74-0.13-3.45-0.55-5.11-0.97c-1.88-0.48-3.65-0.94-5.32-0.87
			c-1.12,0.02-1.96,0.22-2.64,0.47V111.52z M129.31,108.36c0.77-0.25,1.62-0.37,2.6-0.42c1.84-0.06,3.71,0.42,5.69,0.92
			c1.57,0.39,3.17,0.8,4.78,0.93v1.3c-1.74-0.12-3.44-0.54-5.11-0.97c-1.88-0.48-3.66-0.94-5.32-0.89c-1.12,0.03-1.97,0.22-2.64,0.5
			V108.36z M129.31,105.19c0.77-0.25,1.62-0.38,2.61-0.4c1.82-0.07,3.68,0.42,5.66,0.92c1.58,0.39,3.19,0.79,4.81,0.92v1.31
			c-1.75-0.12-3.46-0.54-5.13-0.98c-1.88-0.48-3.65-0.93-5.3-0.87c-1.12,0.02-1.97,0.2-2.64,0.46V105.19z M129.31,102.04
			c0.77-0.25,1.62-0.38,2.59-0.42c1.85-0.07,3.71,0.41,5.69,0.92c1.57,0.41,3.18,0.82,4.78,0.94v1.29c-1.74-0.12-3.44-0.54-5.1-0.96
			c-1.89-0.48-3.67-0.93-5.33-0.87c-1.12,0.04-1.97,0.24-2.64,0.49V102.04z M129.31,98.86c0.77-0.24,1.62-0.37,2.59-0.41
			c1.84-0.06,3.7,0.41,5.67,0.91c1.58,0.41,3.19,0.81,4.81,0.93v1.31c-1.75-0.12-3.46-0.54-5.13-0.97c-1.88-0.5-3.65-0.94-5.3-0.89
			c-1.12,0.05-1.97,0.23-2.64,0.49V98.86z M129.31,95.71c0.77-0.25,1.62-0.39,2.6-0.42c1.84-0.05,3.71,0.42,5.69,0.93
			c1.57,0.4,3.17,0.81,4.78,0.92v1.31c-1.74-0.12-3.44-0.56-5.1-0.98c-1.89-0.48-3.67-0.93-5.33-0.88
			c-1.12,0.03-1.96,0.24-2.64,0.49V95.71z M129.31,92.54c0.77-0.24,1.62-0.38,2.59-0.41c1.85-0.06,3.72,0.41,5.7,0.91
			c1.57,0.4,3.17,0.82,4.78,0.93v1.31c-1.74-0.13-3.44-0.55-5.1-0.98c-1.89-0.46-3.67-0.93-5.33-0.88c-1.12,0.04-1.97,0.25-2.64,0.5
			V92.54z"/>
	</g>
	<g>
		<g>
			<path class="st0" d="M205.31,104.97c0,0.83-0.19,1.62-0.56,2.32c-0.22,0.44-0.53,0.81-0.88,1.14c-0.5,0.22-0.96,0.51-1.37,0.85
				c-0.02-0.2-0.06-0.4-0.06-0.58c0-0.83,0.18-1.62,0.55-2.32c0.48-0.91,1.27-1.61,2.23-2.12
				C205.25,104.5,205.31,104.74,205.31,104.97z"/>
			<path class="st0" d="M195.83,120.71L195.83,120.71c1.01-0.15,2.03,0.06,3,0.53c-0.78,0.74-1.69,1.29-2.7,1.44
				c-1.01,0.14-2.04-0.08-3.01-0.54C193.91,121.4,194.82,120.86,195.83,120.71z"/>
			<path class="st0" d="M190.84,122.28c0-0.07-0.02-0.16-0.02-0.24c0-0.95,0.25-1.85,0.74-2.62l0,0c0.52-0.86,1.34-1.46,2.3-1.86
				c0,0.09,0.02,0.18,0.02,0.27c0,0.94-0.24,1.83-0.72,2.59C192.63,121.27,191.81,121.86,190.84,122.28z"/>
			<path class="st0" d="M194.7,116.9c0.35-0.62,0.85-1.15,1.44-1.61c0.12,0.46,0.28,0.93,0.28,1.4c0,0.52-0.09,1.02-0.24,1.51
				c-0.23,0.68-0.66,1.29-1.21,1.82c-0.21,0.06-0.42,0.14-0.63,0.22c-0.01-0.05-0.02-0.09-0.04-0.14
				C194.73,119.12,194.86,118.02,194.7,116.9z"/>
			<path class="st0" d="M196.86,114.42c0.2-0.68,0.56-1.32,1.05-1.92c0.43,0.79,0.72,1.61,0.72,2.46c0,0.13,0,0.25-0.02,0.38
				c-0.06,0.73-0.33,1.43-0.73,2.06c-0.21,0.11-0.42,0.24-0.61,0.38c-0.02-0.04-0.04-0.08-0.06-0.12
				C197.4,116.6,197.28,115.5,196.86,114.42z"/>
			<path class="st0" d="M198.38,111.46c0.02-0.7,0.23-1.4,0.57-2.09c0.7,0.78,1.22,1.65,1.37,2.62c0.03,0.22,0.05,0.44,0.05,0.65
				c0,0.51-0.11,1-0.29,1.5c-0.17,0.16-0.34,0.33-0.48,0.51c-0.04-0.04-0.08-0.08-0.11-0.12
				C199.41,113.48,199.04,112.44,198.38,111.46z"/>
			<path class="st0" d="M199.17,108.27c-0.06-0.32-0.1-0.65-0.1-0.99c0-0.38,0.11-0.75,0.19-1.12c0.87,0.57,1.57,1.3,1.93,2.19
				c0.23,0.56,0.34,1.18,0.34,1.81c0,0.1-0.02,0.2-0.04,0.3c-0.14,0.2-0.27,0.42-0.38,0.64c-0.04-0.02-0.08-0.05-0.12-0.08
				C200.66,110,200.05,109.05,199.17,108.27z"/>
			<path class="st0" d="M199.22,105.05c-0.31-0.67-0.47-1.39-0.49-2.17c1.01,0.38,1.87,0.93,2.43,1.73c0.42,0.58,0.67,1.24,0.8,1.95
				c-0.09,0.24-0.17,0.49-0.23,0.75c-0.04-0.02-0.09-0.04-0.13-0.07C201.06,106.33,200.24,105.57,199.22,105.05z"/>
			<path class="st0" d="M201.47,103.44c-0.05-0.01-0.11-0.01-0.17-0.03c-0.73-0.74-1.68-1.29-2.79-1.6
				c-0.42-0.55-0.72-1.22-0.92-1.95c1.03,0.13,1.98,0.44,2.7,1.08c0.55,0.48,0.94,1.1,1.23,1.83
				C201.48,102.99,201.47,103.21,201.47,103.44z"/>
			<path class="st0" d="M200.23,99.8c-0.9-0.58-1.96-0.88-3.15-0.92c-0.56-0.45-1.02-1.06-1.39-1.74c1.03-0.11,2.03,0.04,2.91,0.49
				c0.65,0.32,1.17,0.84,1.6,1.45c0.03,0.24,0.07,0.47,0.13,0.71C200.3,99.79,200.26,99.79,200.23,99.8z"/>
			<path class="st0" d="M198.17,120.02c-0.51-0.14-1.02-0.23-1.54-0.23c0.58-0.85,1.31-1.55,2.21-1.91h0
				c0.95-0.39,1.99-0.4,3.03-0.18c-0.59,0.89-1.34,1.62-2.28,2C199.14,119.89,198.66,119.98,198.17,120.02z"/>
			<path class="st0" d="M201.01,116.66c-0.54-0.02-1.08,0.01-1.6,0.13c0.38-0.97,0.93-1.81,1.72-2.37h0
				c0.82-0.61,1.82-0.91,2.92-0.93c-0.37,1.05-0.93,1.94-1.76,2.53C201.91,116.29,201.47,116.5,201.01,116.66z"/>
			<path class="st0" d="M204.02,111.79c-0.32,0.39-0.71,0.68-1.14,0.93c-0.51,0.1-1,0.26-1.46,0.49c0.13-1.01,0.46-1.96,1.09-2.71
				c0.66-0.77,1.6-1.26,2.64-1.54C205.04,110.05,204.7,111.03,204.02,111.79z"/>
			<path class="st0" d="M204.54,101.61c0,0.38-0.04,0.77-0.13,1.14c-0.12,0.47-0.32,0.91-0.59,1.31c-0.43,0.33-0.81,0.72-1.13,1.16
				c-0.21-0.6-0.36-1.2-0.36-1.79c0-0.39,0.05-0.79,0.14-1.17c0.25-0.99,0.86-1.85,1.67-2.59
				C204.39,100.31,204.54,100.97,204.54,101.61z"/>
			<path class="st0" d="M201.03,98.37c0-1,0.4-1.96,1.01-2.88c0.59,0.9,0.97,1.86,0.97,2.9c0,0.01,0,0.01,0,0.01
				c0,0.48-0.1,0.95-0.26,1.4c-0.33,0.42-0.6,0.87-0.81,1.35c-0.55-0.87-0.91-1.79-0.91-2.74
				C201.03,98.41,201.03,98.37,201.03,98.37z"/>
			<path class="st0" d="M199,91.87c0.81,0.74,1.41,1.61,1.65,2.6c0.08,0.35,0.12,0.72,0.12,1.08c0,0.1-0.01,0.21-0.01,0.32
				c-0.24,0.51-0.43,1.02-0.52,1.54c-0.75-0.7-1.3-1.52-1.53-2.48c-0.08-0.36-0.12-0.72-0.12-1.08
				C198.58,93.19,198.75,92.53,199,91.87z"/>
			<path class="st0" d="M198.35,96.47c-0.04,0.02-0.09,0.04-0.14,0.05c-1.01-0.34-2.13-0.41-3.26-0.19
				c-0.64-0.31-1.22-0.78-1.73-1.36c1-0.35,2.01-0.43,2.95-0.21c0.7,0.18,1.32,0.55,1.88,1.05
				C198.15,96.05,198.25,96.26,198.35,96.47z"/>
			<path class="st0" d="M195.23,89.12c0.95,0.52,1.74,1.21,2.19,2.14c0.21,0.42,0.35,0.86,0.43,1.32c-0.11,0.54-0.17,1.1-0.14,1.64
				c-0.9-0.52-1.64-1.2-2.08-2.07c-0.33-0.69-0.51-1.45-0.51-2.24C195.13,89.64,195.19,89.38,195.23,89.12z"/>
			<path class="st0" d="M194.11,91.09c0.11,0.08,0.22,0.19,0.32,0.28c0.1,0.4,0.22,0.79,0.4,1.16l0.01,0.01
				c0.19,0.38,0.44,0.72,0.71,1.06c-0.96-0.06-1.85-0.36-2.59-0.88c-0.85-0.61-1.42-1.5-1.79-2.54
				C192.26,90.21,193.27,90.51,194.11,91.09z"/>
			<path class="st0" d="M176.28,120.09c-0.01,0.05-0.02,0.09-0.04,0.14c-0.21-0.08-0.42-0.16-0.63-0.22
				c-0.54-0.53-0.98-1.13-1.2-1.83c-0.17-0.48-0.25-0.99-0.25-1.5c0-0.47,0.15-0.94,0.29-1.4c0.59,0.46,1.09,0.99,1.44,1.61
				C175.73,118.02,175.87,119.12,176.28,120.09z"/>
			<path class="st0" d="M173.5,98.88c-1.17,0.04-2.24,0.35-3.13,0.92c-0.04-0.01-0.08-0.01-0.11-0.01c0.06-0.24,0.1-0.47,0.13-0.71
				c0.42-0.61,0.94-1.13,1.59-1.46c0.88-0.45,1.88-0.6,2.91-0.49C174.53,97.82,174.07,98.43,173.5,98.88z"/>
			<path class="st0" d="M173.38,117.65c-0.02,0.04-0.05,0.08-0.07,0.12c-0.19-0.14-0.39-0.27-0.59-0.38
				c-0.4-0.63-0.67-1.33-0.74-2.06c0-0.12-0.01-0.25-0.01-0.38c0-0.85,0.29-1.67,0.71-2.46c0.49,0.6,0.86,1.24,1.05,1.92
				C173.3,115.5,173.19,116.6,173.38,117.65z"/>
			<path class="st0" d="M170.28,112c0.15-0.97,0.66-1.84,1.37-2.62c0.33,0.69,0.55,1.39,0.57,2.08c-0.66,0.98-1.04,2.03-1.12,3.09
				c-0.03,0.04-0.07,0.08-0.1,0.12c-0.15-0.18-0.31-0.35-0.48-0.51c-0.17-0.49-0.27-0.99-0.27-1.5
				C170.24,112.44,170.25,112.21,170.28,112z"/>
			<path class="st0" d="M169.61,111.01c-0.04,0.03-0.07,0.06-0.12,0.08c-0.11-0.22-0.24-0.44-0.38-0.65
				c-0.01-0.09-0.03-0.19-0.03-0.29c0-0.63,0.11-1.25,0.34-1.81c0.35-0.89,1.06-1.63,1.92-2.2c0.09,0.37,0.2,0.75,0.2,1.12
				c0,0.35-0.04,0.67-0.11,0.99C170.54,109.05,169.94,110,169.61,111.01z"/>
			<path class="st0" d="M170.3,100.94c0.72-0.64,1.66-0.96,2.7-1.08c-0.2,0.73-0.5,1.39-0.92,1.94c-1.12,0.32-2.06,0.86-2.78,1.61
				c-0.06,0.01-0.11,0.02-0.17,0.03c0-0.22-0.02-0.45-0.04-0.66C169.36,102.04,169.75,101.43,170.3,100.94z"/>
			<path class="st0" d="M169.42,104.61c0.56-0.8,1.42-1.35,2.43-1.73c-0.01,0.77-0.18,1.5-0.49,2.16c-1.01,0.54-1.83,1.29-2.37,2.2
				c-0.05,0.03-0.09,0.05-0.14,0.07c-0.06-0.26-0.14-0.51-0.23-0.75C168.75,105.85,169.01,105.18,169.42,104.61z"/>
			<path class="st0" d="M169.17,113.21c-0.46-0.23-0.95-0.38-1.46-0.49c-0.43-0.25-0.82-0.55-1.15-0.93
				c-0.67-0.76-1.01-1.74-1.13-2.83c1.05,0.27,1.97,0.76,2.64,1.54C168.7,111.26,169.04,112.2,169.17,113.21z"/>
			<path class="st0" d="M169.46,114.41L169.46,114.41c0.8,0.56,1.34,1.39,1.72,2.37c-0.53-0.12-1.06-0.15-1.6-0.13
				c-0.46-0.16-0.9-0.37-1.3-0.65c-0.82-0.58-1.39-1.47-1.76-2.53C167.63,113.5,168.63,113.8,169.46,114.41z"/>
			<path class="st0" d="M171.75,117.88L171.75,117.88c0.9,0.37,1.63,1.07,2.21,1.91c-0.52,0-1.03,0.09-1.53,0.23
				c-0.49-0.03-0.97-0.13-1.44-0.33c-0.94-0.37-1.68-1.1-2.28-2C169.75,117.47,170.79,117.49,171.75,117.88z"/>
			<path class="st0" d="M174.76,120.71L174.76,120.71c1.01,0.15,1.92,0.69,2.72,1.43c-0.98,0.47-2.01,0.69-3.02,0.54
				c-1.01-0.16-1.91-0.7-2.7-1.44C172.73,120.77,173.75,120.56,174.76,120.71z"/>
			<path class="st0" d="M177.42,120.4c-0.48-0.76-0.72-1.65-0.72-2.59c0-0.09,0.01-0.18,0.02-0.27c0.96,0.4,1.79,1,2.31,1.85l0,0.01
				c0.49,0.77,0.75,1.67,0.75,2.62c0,0.08-0.01,0.17-0.02,0.24C178.77,121.86,177.96,121.27,177.42,120.4z"/>
			<path class="st0" d="M175.75,92.53c0.18-0.37,0.31-0.76,0.41-1.16c0.11-0.09,0.2-0.2,0.32-0.28c0.84-0.59,1.84-0.89,2.94-0.91
				c-0.38,1.04-0.95,1.93-1.8,2.54c-0.74,0.52-1.63,0.82-2.59,0.88C175.3,93.26,175.55,92.92,175.75,92.53L175.75,92.53z"/>
			<path class="st0" d="M173.16,91.26c0.47-0.94,1.25-1.63,2.21-2.14c0.03,0.26,0.1,0.53,0.1,0.79c0,0.79-0.17,1.55-0.5,2.24
				c-0.46,0.86-1.19,1.55-2.08,2.07c0.03-0.54-0.02-1.1-0.14-1.64C172.82,92.12,172.96,91.68,173.16,91.26z"/>
			<path class="st0" d="M172.52,95.81c0.56-0.5,1.19-0.87,1.89-1.05c0.94-0.23,1.95-0.14,2.96,0.21c-0.51,0.59-1.09,1.06-1.74,1.35
				c-1.13-0.22-2.24-0.15-3.25,0.2c-0.05-0.01-0.1-0.03-0.14-0.05C172.34,96.26,172.44,96.05,172.52,95.81z"/>
			<path class="st0" d="M169.95,94.47c0.24-0.99,0.84-1.85,1.65-2.6c0.24,0.65,0.41,1.32,0.41,1.99c0,0.36-0.04,0.73-0.12,1.08
				c-0.23,0.96-0.78,1.78-1.52,2.48c-0.09-0.52-0.27-1.05-0.51-1.54c-0.01-0.11-0.02-0.23-0.02-0.32
				C169.83,95.19,169.86,94.83,169.95,94.47z"/>
			<path class="st0" d="M167.58,98.39c0-1.04,0.38-2.01,0.97-2.9c0.62,0.92,1.01,1.87,1.01,2.88c0,0,0,0.03,0,0.05
				c0,0.95-0.35,1.87-0.91,2.73c-0.21-0.47-0.48-0.92-0.81-1.34c-0.17-0.46-0.27-0.92-0.27-1.4
				C167.58,98.41,167.58,98.4,167.58,98.39z"/>
			<path class="st0" d="M166.44,99.67c0.81,0.74,1.43,1.6,1.67,2.59c0.09,0.38,0.14,0.78,0.14,1.17c0,0.58-0.14,1.18-0.35,1.78
				c-0.32-0.43-0.7-0.82-1.12-1.15c-0.27-0.41-0.48-0.84-0.6-1.31c-0.09-0.38-0.14-0.76-0.14-1.14
				C166.03,100.97,166.2,100.31,166.44,99.67z"/>
			<path class="st0" d="M165.37,104.27c0.96,0.5,1.76,1.2,2.23,2.12c0.37,0.7,0.56,1.5,0.56,2.32c0,0.18-0.04,0.38-0.06,0.57
				c-0.41-0.34-0.88-0.62-1.38-0.84c-0.36-0.34-0.65-0.71-0.87-1.14c-0.38-0.7-0.57-1.5-0.57-2.32
				C165.27,104.74,165.33,104.5,165.37,104.27z"/>
		</g>
		<g>
			<path class="st0" d="M191.42,122.78l-0.12,0.07c-1.34,0.74-2.8,1.21-4.74,1.52c0.55-1,0.9-2.62,0.9-4.46
				c0-1.46-0.22-2.77-0.58-3.76h2.53c1.45,0,2.06-0.85,2.06-1.63c0-0.63-0.51-1.2-1.16-1.2c-0.64,0-1.16,0.52-1.16,1.16
				c0,0.18,0.07,0.36,0.13,0.46c0.1,0.21,0.18,0.43-0.26,0.43h-1.53V95.65c0-2.68-0.21-5.86-1.75-9.03l-0.44-0.9l-0.44,0.9
				c-1.54,3.14-1.74,6.33-1.74,9.03v19.72h-1.55c-0.42,0-0.36-0.23-0.26-0.43c0.06-0.1,0.12-0.28,0.12-0.46
				c0-0.65-0.5-1.16-1.15-1.16c-0.63,0-1.17,0.57-1.17,1.2c0,0.78,0.62,1.63,2.06,1.63h2.54c-0.37,0.99-0.59,2.3-0.59,3.76
				c0,1.84,0.36,3.47,0.91,4.46c-1.95-0.29-3.45-0.76-4.83-1.53l-0.12-0.07l-0.37,0.84l0.1,0.05c1.21,0.67,2.41,0.96,3.8,1.3
				c0.03,0.01,1.11,0.21,1.88,0.36c-0.19,0.19-0.31,0.47-0.31,0.77c0,0.56,0.48,1.03,1.06,1.03c0.6,0,1.07-0.47,1.07-1.03
				c0-0.3-0.11-0.58-0.31-0.77c0.77-0.15,1.82-0.34,1.82-0.34c1.44-0.35,2.66-0.64,3.86-1.31l0.1-0.05L191.42,122.78z M186.5,114.19
				h-1.22v-26c1.01,2.61,1.22,5.21,1.22,7.46V114.19z"/>
		</g>
	</g>
</g>
<rect class="st1" width="808.06" height="344.65"/>
</svg>
