<?xml version="1.0" encoding="utf-8"?>
<!-- Generator: Adobe Illustrator 24.1.0, SVG Export Plug-In . SVG Version: 6.00 Build 0)  -->
<svg version="1.1" id="Layer_1" xmlns="http://www.w3.org/2000/svg" xmlns:xlink="http://www.w3.org/1999/xlink" x="0px" y="0px"
	 viewBox="0 0 808.06 344.65" style="enable-background:new 0 0 808.06 344.65;" xml:space="preserve">
<style type="text/css">
	.st0{fill:#0065A9;}
	.st1{fill:#FFFFFF;}
	.st2{fill:none;}
</style>
<path class="st0" d="M98.85,138.28c0,3.18-0.34,27.79,15.07,53.21c13.85,22.96,34.47,33.06,43.26,36.25
	c8.89-3.19,29.5-13.29,43.33-36.25c15.43-25.43,15.06-50.03,15.06-53.21V78.45L98.85,78.44V138.28z"/>
<g>
	<path class="st0" d="M222.56,166.41l-0.57,1.93c-0.68,2.3-1.44,4.54-2.23,6.69l-5.03-4.53l-0.61,1.82
		c-2.69,7.94-6.17,15.42-10.39,22.16c-10.96,17.55-26.45,30.35-44.67,37.01c0,0-1.31,0.46-1.87,0.67c-0.52-0.2-1.81-0.67-1.81-0.67
		c-18.21-6.67-33.68-19.46-44.64-37.01c-4.21-6.71-7.75-14.19-10.39-22.16l-0.62-1.82l-1.46,1.28l-3.56,3.22
		c-0.79-2.15-1.56-4.35-2.25-6.66l-0.56-1.92l-1.48,1.34L77.84,179.1l0.23,0.76c2.98,9.6,7.89,19.46,11.54,26.01l0.73,1.37
		l5.23-4.68c0.2,0.35,0.36,0.73,0.58,1.07c13.03,20.82,31.47,36.03,53.33,44.02l7.71,2.83l7.8-2.83c21.86-8,40.26-23.21,53.29-44.01
		c0.21-0.34,0.4-0.73,0.61-1.07l5.15,4.66l0.78-1.37c3.64-6.49,8.54-16.27,11.53-26.02l0.23-0.75L222.56,166.41z"/>
</g>
<g>
	<path class="st1" d="M205.78,104.74c0,0.82-0.2,1.64-0.54,2.32c-0.18,0.42-0.49,0.81-0.85,1.16c-0.5,0.22-0.97,0.5-1.39,0.86
		c-0.03-0.19-0.07-0.4-0.07-0.58c0-0.86,0.18-1.63,0.57-2.33c0.48-0.94,1.29-1.63,2.19-2.15
		C205.72,104.26,205.78,104.51,205.78,104.74z"/>
	<path class="st1" d="M196.29,120.56L196.29,120.56c1.02-0.15,2.05,0.07,2.96,0.53c-0.72,0.76-1.63,1.28-2.66,1.43
		c-1.03,0.15-2.08-0.07-3.08-0.52C194.33,121.25,195.25,120.71,196.29,120.56z"/>
	<path class="st1" d="M191.27,122.13c-0.01-0.08-0.02-0.15-0.02-0.23c0-0.97,0.26-1.88,0.75-2.67l0.01,0
		c0.52-0.84,1.28-1.44,2.26-1.86c0.02,0.09,0.03,0.19,0.03,0.28c0,0.96-0.26,1.81-0.74,2.6
		C193.08,121.13,192.27,121.73,191.27,122.13z"/>
	<path class="st1" d="M195.14,116.71c0.35-0.61,0.85-1.13,1.46-1.59c0.12,0.47,0.29,0.94,0.29,1.38c0,0.53-0.08,1.04-0.25,1.54
		c-0.24,0.69-0.67,1.27-1.24,1.81c-0.2,0.06-0.42,0.13-0.63,0.22c-0.01-0.05-0.03-0.09-0.03-0.14
		C195.16,118.97,195.29,117.87,195.14,116.71z"/>
	<path class="st1" d="M197.33,114.23c0.21-0.69,0.58-1.32,1.08-1.92c0.44,0.79,0.72,1.61,0.72,2.47c0,0.13,0,0.26-0.01,0.39
		c-0.05,0.74-0.33,1.4-0.74,2.05c-0.21,0.11-0.42,0.25-0.62,0.39c-0.02-0.04-0.04-0.08-0.06-0.12
		C197.88,116.41,197.76,115.33,197.33,114.23z"/>
	<path class="st1" d="M198.87,111.26c0.04-0.72,0.24-1.39,0.5-2.08c0.73,0.77,1.25,1.64,1.39,2.61c0.02,0.23,0.04,0.45,0.04,0.66
		c0,0.51-0.11,0.99-0.29,1.49c-0.18,0.17-0.34,0.34-0.49,0.53c-0.04-0.04-0.07-0.08-0.09-0.12
		C199.85,113.27,199.47,112.25,198.87,111.26z"/>
	<path class="st1" d="M199.6,108.05c-0.07-0.33-0.11-0.66-0.11-0.99c0-0.34,0.11-0.74,0.2-1.12c0.88,0.59,1.59,1.28,1.96,2.19
		c0.23,0.59,0.34,1.22,0.34,1.83c0,0.1-0.02,0.18-0.03,0.28c-0.16,0.21-0.28,0.43-0.4,0.66c-0.04-0.03-0.08-0.06-0.12-0.09
		C201.12,109.81,200.5,108.86,199.6,108.05z"/>
	<path class="st1" d="M199.66,104.81c-0.32-0.68-0.46-1.37-0.47-2.17c0.98,0.38,1.86,0.95,2.44,1.72c0.42,0.58,0.68,1.25,0.8,2
		c-0.09,0.24-0.16,0.48-0.22,0.71c-0.06-0.02-0.1-0.03-0.15-0.05C201.52,106.13,200.68,105.34,199.66,104.81z"/>
	<path class="st1" d="M201.95,103.21c-0.07-0.01-0.12-0.02-0.19-0.03c-0.73-0.75-1.69-1.3-2.75-1.62c-0.44-0.55-0.73-1.2-0.93-1.94
		c1.04,0.12,1.93,0.45,2.67,1.09c0.54,0.45,0.95,1.09,1.24,1.81C201.96,102.75,201.95,102.98,201.95,103.21z"/>
	<path class="st1" d="M200.68,99.56c-0.92-0.6-1.92-0.91-3.12-0.95c-0.57-0.47-1.04-1.04-1.43-1.73c1.07-0.11,2.07,0.04,2.97,0.5
		c0.58,0.34,1.12,0.82,1.54,1.44c0.03,0.24,0.07,0.48,0.13,0.73C200.75,99.55,200.71,99.55,200.68,99.56z"/>
	<path class="st1" d="M198.67,119.85c-0.51-0.15-1.05-0.24-1.56-0.24c0.58-0.82,1.33-1.52,2.16-1.9l0,0
		c0.97-0.39,2.03-0.41,3.09-0.18c-0.6,0.91-1.35,1.62-2.32,1.99C199.57,119.72,199.14,119.82,198.67,119.85z"/>
	<path class="st1" d="M201.47,116.46c-0.55-0.03-1.09,0.01-1.62,0.13c0.38-0.94,0.94-1.81,1.76-2.37v-0.01
		c0.82-0.6,1.86-0.91,2.98-0.94c-0.38,1.07-0.97,1.99-1.8,2.58C202.38,116.11,201.94,116.31,201.47,116.46z"/>
	<path class="st1" d="M204.54,111.61c-0.32,0.38-0.72,0.69-1.15,0.94c-0.53,0.1-1.03,0.26-1.49,0.47c0.13-1.01,0.47-1.97,1.11-2.75
		c0.67-0.74,1.63-1.23,2.61-1.51C205.49,109.86,205.21,110.82,204.54,111.61z"/>
	<path class="st1" d="M205.07,101.35c0,0.39-0.05,0.78-0.14,1.16c-0.1,0.48-0.32,0.93-0.6,1.34c-0.43,0.31-0.81,0.7-1.14,1.13
		c-0.22-0.61-0.37-1.17-0.37-1.78c0-0.39,0.06-0.79,0.15-1.18c0.25-1,0.87-1.85,1.69-2.6C204.91,100.09,205.07,100.74,205.07,101.35
		z"/>
	<path class="st1" d="M201.49,98.1c0-0.98,0.4-1.96,1.02-2.89c0.61,0.9,1,1.9,1,2.91c0,0,0,0.01,0,0.02c0,0.49-0.12,0.97-0.27,1.44
		c-0.34,0.42-0.62,0.88-0.84,1.34c-0.56-0.85-0.92-1.79-0.92-2.77C201.49,98.13,201.49,98.1,201.49,98.1z"/>
	<path class="st1" d="M199.42,91.6c0.82,0.72,1.44,1.6,1.67,2.61c0.07,0.36,0.13,0.7,0.13,1.06c0,0.11-0.02,0.22-0.03,0.32
		c-0.24,0.52-0.43,1.05-0.52,1.58c-0.74-0.72-1.33-1.56-1.5-2.48c-0.06-0.37-0.09-0.75-0.09-1.12
		C199.08,92.91,199.2,92.24,199.42,91.6z"/>
	<path class="st1" d="M198.85,96.21c-0.04,0.01-0.09,0.02-0.14,0.04c-1.03-0.36-2.16-0.43-3.31-0.2c-0.65-0.31-1.25-0.79-1.76-1.33
		c1.02-0.37,2.05-0.45,3.02-0.22c0.71,0.18,1.34,0.53,1.91,1.03C198.64,95.76,198.75,95.99,198.85,96.21z"/>
	<path class="st1" d="M195.67,88.81c0.97,0.51,1.77,1.22,2.24,2.17c0.21,0.42,0.35,0.85,0.44,1.29c-0.12,0.55-0.17,1.11-0.14,1.67
		c-0.9-0.54-1.67-1.22-2.13-2.08c-0.33-0.68-0.49-1.45-0.49-2.26C195.57,89.33,195.64,89.06,195.67,88.81z"/>
	<path class="st1" d="M194.54,90.81c0.11,0.09,0.21,0.18,0.31,0.28c0.11,0.41,0.23,0.78,0.42,1.15v0.01
		c0.2,0.38,0.45,0.73,0.73,1.07c-0.97-0.07-1.88-0.36-2.64-0.89c-0.79-0.6-1.37-1.5-1.75-2.54
		C192.74,89.9,193.68,90.21,194.54,90.81z"/>
	<path class="st1" d="M180.68,113.12c0.58,0,1.1,0.52,1.1,1.17c0,0.18-0.07,0.37-0.13,0.47c-0.1,0.21-0.17,0.44,0.27,0.44h1.57
		V95.37c0-2.72,0.21-5.92,1.77-9.08l0.45-0.88l0.45,0.88c1.49,3.19,1.71,6.38,1.71,9.08v19.83h1.56c0.44,0,0.37-0.24,0.26-0.44
		c-0.06-0.1-0.12-0.29-0.12-0.47c0-0.65,0.52-1.17,1.17-1.17c0.66,0,1.18,0.57,1.18,1.2c0,0.82-0.63,1.66-2.09,1.66h-2.59
		c0.37,0.97,0.6,2.32,0.6,3.77c0,1.86-0.36,3.47-0.85,4.48c1.91-0.31,3.4-0.78,4.75-1.53l0.13-0.08l0.36,0.85l-0.1,0.06
		c-1.22,0.68-2.46,0.98-3.93,1.33c0,0-1.06,0.2-1.78,0.33c0.2,0.19,0.31,0.45,0.31,0.77c0,0.58-0.45,1.05-1.07,1.05
		c-0.59,0-1.09-0.47-1.09-1.05c0-0.31,0.14-0.58,0.33-0.77c-0.77-0.13-1.88-0.33-1.91-0.33c-1.41-0.35-2.56-0.65-3.79-1.33
		l-0.1-0.06l0.37-0.85l0.12,0.08c1.39,0.75,2.86,1.23,4.85,1.54c-0.57-1.02-0.93-2.63-0.93-4.5c0-1.45,0.22-2.8,0.59-3.77h-2.58
		c-1.38,0-2.02-0.86-2.02-1.66C179.49,113.68,180.03,113.12,180.68,113.12z"/>
	<path class="st1" d="M176.61,119.92c-0.01,0.06-0.01,0.1-0.03,0.15c-0.21-0.09-0.41-0.16-0.64-0.22c-0.55-0.54-0.95-1.12-1.15-1.82
		c-0.16-0.49-0.25-1.01-0.25-1.54c0-0.44,0.17-0.91,0.28-1.39c0.54,0.47,1.04,0.99,1.39,1.6
		C176.05,117.87,176.2,118.97,176.61,119.92z"/>
	<path class="st1" d="M173.88,98.61c-1.2,0.03-2.28,0.35-3.19,0.95c-0.04-0.01-0.08-0.01-0.12-0.01c0.07-0.25,0.12-0.49,0.14-0.73
		c0.44-0.62,0.96-1.1,1.61-1.44c0.9-0.46,1.92-0.61,2.9-0.51C174.88,97.57,174.44,98.15,173.88,98.61z"/>
	<path class="st1" d="M173.75,117.48c-0.02,0.04-0.05,0.09-0.07,0.12c-0.2-0.14-0.4-0.27-0.61-0.39c-0.41-0.64-0.69-1.31-0.76-2.05
		c-0.01-0.14-0.02-0.26-0.02-0.39c0-0.85,0.29-1.67,0.72-2.46c0.51,0.6,0.89,1.22,1.08,1.92
		C173.66,115.33,173.56,116.41,173.75,117.48z"/>
	<path class="st1" d="M170.59,111.8c0.15-0.98,0.68-1.85,1.39-2.61c0.34,0.69,0.56,1.36,0.58,2.08c-0.67,0.98-1.06,2.01-1.14,3.09
		c-0.03,0.04-0.06,0.08-0.09,0.12c-0.16-0.19-0.33-0.36-0.5-0.53c-0.17-0.49-0.28-0.98-0.28-1.49
		C170.54,112.25,170.56,112.03,170.59,111.8z"/>
	<path class="st1" d="M169.91,110.8c-0.03,0.03-0.07,0.06-0.12,0.09c-0.11-0.23-0.24-0.45-0.38-0.67c-0.02-0.09-0.05-0.17-0.05-0.27
		c0-0.61,0.11-1.24,0.35-1.83c0.36-0.9,1.08-1.61,1.95-2.19c0.07,0.38,0.19,0.78,0.19,1.12c0,0.33-0.04,0.66-0.12,0.99
		C170.86,108.85,170.24,109.81,169.91,110.8z"/>
	<path class="st1" d="M170.62,100.72c0.72-0.64,1.68-0.97,2.74-1.09c-0.22,0.74-0.51,1.39-0.95,1.93c-1.14,0.33-2.09,0.88-2.84,1.63
		c-0.06,0-0.12,0.02-0.16,0.03c0-0.23-0.02-0.46-0.04-0.68C169.65,101.8,170.06,101.16,170.62,100.72z"/>
	<path class="st1" d="M169.73,104.36c0.57-0.77,1.43-1.34,2.45-1.72c-0.01,0.79-0.17,1.49-0.49,2.15c-1.03,0.55-1.85,1.33-2.41,2.23
		c-0.05,0.02-0.1,0.03-0.13,0.05c-0.05-0.23-0.12-0.48-0.2-0.71C169.05,105.61,169.3,104.94,169.73,104.36z"/>
	<path class="st1" d="M169.46,113.02c-0.44-0.21-0.88-0.37-1.41-0.47c-0.44-0.25-0.83-0.56-1.16-0.94
		c-0.68-0.78-1.04-1.75-1.16-2.85c1.07,0.28,2.02,0.78,2.69,1.51C169.02,111.06,169.33,112.01,169.46,113.02z"/>
	<path class="st1" d="M169.76,114.21l0.01,0.01c0.8,0.57,1.36,1.42,1.74,2.37c-0.52-0.12-1.07-0.16-1.63-0.13
		c-0.46-0.15-0.87-0.35-1.24-0.62c-0.83-0.58-1.42-1.5-1.78-2.57C167.98,113.3,168.95,113.61,169.76,114.21z"/>
	<path class="st1" d="M172.09,117.71L172.09,117.71c0.92,0.38,1.67,1.08,2.25,1.9c-0.53,0-1.05,0.09-1.57,0.24
		c-0.5-0.03-0.99-0.13-1.45-0.33c-0.97-0.37-1.73-1.08-2.3-1.99C170.06,117.3,171.12,117.32,172.09,117.71z"/>
	<path class="st1" d="M175.09,120.56L175.09,120.56c1.01,0.15,1.93,0.69,2.74,1.44c-0.98,0.44-2.03,0.68-3,0.52
		c-1-0.15-1.92-0.67-2.73-1.43C173.1,120.62,174.12,120.41,175.09,120.56z"/>
	<path class="st1" d="M177.78,120.24c-0.48-0.78-0.73-1.64-0.73-2.6c0-0.09,0.02-0.18,0.03-0.28c0.98,0.42,1.81,1.03,2.36,1.86v0
		c0.49,0.77,0.74,1.69,0.74,2.67c0,0.08-0.01,0.15-0.01,0.23C179.16,121.73,178.33,121.13,177.78,120.24z"/>
	<path class="st1" d="M176.09,92.24c0.17-0.37,0.31-0.74,0.41-1.15c0.1-0.09,0.21-0.19,0.33-0.28c0.85-0.6,1.88-0.91,2.99-0.92
		c-0.38,1.04-0.96,1.94-1.82,2.54c-0.77,0.53-1.66,0.82-2.64,0.89c0.27-0.34,0.53-0.69,0.73-1.07L176.09,92.24z"/>
	<path class="st1" d="M173.53,90.98c0.46-0.96,1.26-1.66,2.16-2.17c0.03,0.25,0.1,0.52,0.1,0.78c0,0.81-0.18,1.58-0.52,2.26
		c-0.4,0.86-1.12,1.55-2.03,2.08c0.03-0.56-0.02-1.11-0.14-1.67C173.18,91.83,173.32,91.4,173.53,90.98z"/>
	<path class="st1" d="M172.88,95.53c0.57-0.5,1.2-0.84,1.91-1.03c0.9-0.23,1.92-0.15,2.92,0.22c-0.5,0.55-1.11,1.02-1.75,1.33
		c-1.1-0.23-2.2-0.16-3.24,0.2c-0.05-0.02-0.09-0.03-0.14-0.04C172.71,95.99,172.79,95.76,172.88,95.53z"/>
	<path class="st1" d="M170.26,94.21c0.23-1,0.84-1.89,1.67-2.61c0.25,0.64,0.42,1.31,0.42,1.97c0,0.37-0.03,0.75-0.12,1.12
		c-0.22,0.92-0.79,1.76-1.54,2.48c-0.1-0.54-0.29-1.07-0.53-1.58c-0.01-0.1-0.01-0.22-0.01-0.32
		C170.14,94.92,170.18,94.57,170.26,94.21z"/>
	<path class="st1" d="M167.93,98.12c0-1.01,0.38-2.01,0.95-2.91c0.58,0.93,0.97,1.9,0.97,2.89c0,0,0,0.03,0,0.05
		c0,0.98-0.35,1.92-0.88,2.77c-0.19-0.46-0.44-0.92-0.78-1.34c-0.17-0.46-0.26-0.95-0.26-1.44
		C167.93,98.13,167.93,98.12,167.93,98.12z"/>
	<path class="st1" d="M166.76,99.42c0.83,0.75,1.45,1.6,1.71,2.6c0.09,0.39,0.14,0.79,0.14,1.18c0,0.61-0.15,1.17-0.36,1.78
		c-0.32-0.44-0.72-0.83-1.15-1.13c-0.27-0.41-0.48-0.86-0.61-1.34c-0.1-0.38-0.15-0.77-0.15-1.16
		C166.35,100.74,166.52,100.08,166.76,99.42z"/>
	<path class="st1" d="M165.68,104.03c0.97,0.5,1.79,1.21,2.27,2.15c0.37,0.7,0.56,1.48,0.56,2.33c0,0.18-0.04,0.38-0.06,0.57
		c-0.42-0.35-0.9-0.64-1.4-0.85c-0.36-0.35-0.66-0.74-0.89-1.16c-0.4-0.69-0.58-1.5-0.58-2.32
		C165.59,104.51,165.64,104.26,165.68,104.03z"/>
</g>
<path class="st0" d="M186.94,95.37c0-2.25-0.21-4.86-1.23-7.48v26.09h1.23V95.37z"/>
<g>
	<path class="st1" d="M137.81,116.72c2.07,0.54,4.29,1.09,6.47,0.93c0-1.08,0-22.9,0-26.84c0-0.28,0-0.48,0-0.56
		c-2.35,0.15-4.65-0.42-6.8-0.98c-1.92-0.47-3.75-0.93-5.36-0.85l0,0c-2.29,0.07-3.51,0.73-4.29,1.41v0.98v26.17
		c1.16-0.74,2.5-1.1,4.24-1.16C133.88,115.76,135.78,116.21,137.81,116.72z"/>
	<path class="st1" d="M122.33,115.83c1.73,0.05,3.07,0.42,4.23,1.16V90.82v-0.98c-0.79-0.71-1.98-1.35-4.28-1.41
		c-1.66-0.07-3.43,0.38-5.36,0.85c-2.18,0.56-4.43,1.13-6.78,0.98c0,0.09,0,0.28,0,0.56c0,3.94,0,25.75,0,26.84
		c2.17,0.15,4.36-0.39,6.46-0.93C118.62,116.21,120.51,115.76,122.33,115.83z"/>
	<path class="st1" d="M147.73,90.82h-1.76l0.15,0.61c0.02,0.05,0.03,0.13,0.03,0.19v28.2c-1.38,0-16.63-0.03-17.48-0.03
		c-0.31,0.53-0.7,0.63-1.5,0.63c-0.74,0-1.06-0.09-1.38-0.63c-0.78,0-14.82,0.03-17.57,0.03v-28.2c0-0.05,0-0.14,0.02-0.2l0.15-0.6
		h-2.37v31.2c0,0,18.28,0,18.84,0c0.39,0.75,1.22,1.36,2.3,1.36c1.16,0,1.98-0.61,2.39-1.36c0.57,0,18.84,0,18.84,0v-31.2H147.73z"
		/>
</g>
<g>
	<path class="st0" d="M132.08,95c-1,0.04-1.86,0.18-2.64,0.43v1.4c0.69-0.26,1.54-0.46,2.68-0.5c1.61-0.05,3.43,0.41,5.34,0.9
		c1.62,0.43,3.34,0.83,5.1,0.96v-1.29c-1.62-0.13-3.25-0.53-4.76-0.95C135.77,95.43,133.87,94.95,132.08,95z"/>
	<path class="st0" d="M132.08,110.9c-1,0.03-1.86,0.17-2.64,0.42v1.4c0.69-0.27,1.54-0.47,2.68-0.49c1.6-0.08,3.42,0.39,5.34,0.86
		c1.61,0.42,3.33,0.84,5.1,0.96v-1.29c-1.63-0.11-3.26-0.52-4.78-0.94C135.77,111.34,133.87,110.84,132.08,110.9z"/>
	<path class="st0" d="M132.08,107.71c-1,0.04-1.86,0.18-2.64,0.42v1.41c0.69-0.27,1.54-0.47,2.68-0.51
		c1.61-0.06,3.43,0.41,5.35,0.88c1.61,0.41,3.33,0.85,5.09,0.96v-1.28c-1.62-0.13-3.25-0.54-4.76-0.95
		C135.78,108.13,133.88,107.64,132.08,107.71z"/>
	<path class="st0" d="M132.08,98.18c-1,0.03-1.86,0.17-2.64,0.42v1.4c0.69-0.26,1.54-0.46,2.68-0.5c1.6-0.05,3.41,0.4,5.32,0.89
		c1.62,0.43,3.34,0.82,5.11,0.96v-1.29c-1.63-0.12-3.27-0.54-4.79-0.94C135.76,98.6,133.87,98.11,132.08,98.18z"/>
	<path class="st0" d="M132.08,104.56c-1,0.01-1.86,0.14-2.64,0.38v1.4c0.68-0.26,1.53-0.45,2.67-0.46c1.61-0.05,3.42,0.4,5.33,0.89
		c1.62,0.39,3.35,0.84,5.12,0.95v-1.29c-1.64-0.13-3.27-0.54-4.8-0.94C135.76,104.98,133.87,104.5,132.08,104.56z"/>
	<path class="st0" d="M137.8,92.75c-2.03-0.51-3.93-0.96-5.72-0.9c-1,0.02-1.86,0.16-2.64,0.4v1.41c0.69-0.27,1.54-0.46,2.68-0.5
		c1.61-0.06,3.43,0.4,5.34,0.88c1.62,0.44,3.34,0.85,5.1,0.95V93.7C140.95,93.57,139.31,93.17,137.8,92.75z"/>
	<path class="st0" d="M116.62,108.66c-1.58,0.39-3.15,0.81-4.79,0.94v1.29c1.79-0.12,3.43-0.55,5.12-0.97
		c1.92-0.48,3.68-0.94,5.34-0.88c1.15,0.04,2.02,0.23,2.7,0.5v-1.41c-0.79-0.24-1.65-0.38-2.65-0.42
		C120.51,107.65,118.65,108.13,116.62,108.66z"/>
	<path class="st0" d="M116.66,105.49c-1.6,0.41-3.18,0.82-4.83,0.95v1.28c1.8-0.11,3.44-0.56,5.15-0.95c1.9-0.49,3.67-0.94,5.3-0.89
		c1.15,0.02,2.02,0.21,2.7,0.48v-1.4c-0.79-0.24-1.66-0.38-2.65-0.39C120.52,104.5,118.66,104.98,116.66,105.49z"/>
	<path class="st0" d="M132.08,101.36c-1,0.03-1.86,0.17-2.64,0.42v1.4c0.69-0.25,1.54-0.46,2.68-0.49c1.61-0.06,3.43,0.39,5.35,0.9
		c1.61,0.4,3.33,0.81,5.09,0.94v-1.28c-1.62-0.13-3.25-0.54-4.76-0.95C135.78,101.78,133.88,101.3,132.08,101.36z"/>
	<path class="st0" d="M116.63,111.84c-1.58,0.41-3.16,0.82-4.8,0.93v1.3c1.79-0.12,3.43-0.55,5.12-0.97
		c1.92-0.47,3.68-0.94,5.34-0.86c1.15,0.02,2.01,0.21,2.7,0.48v-1.4c-0.79-0.25-1.66-0.39-2.65-0.42
		C120.51,110.84,118.65,111.34,116.63,111.84z"/>
	<path class="st0" d="M116.62,92.75c-1.58,0.42-3.15,0.82-4.79,0.95v1.29c1.78-0.11,3.43-0.52,5.12-0.95
		c1.92-0.49,3.68-0.94,5.34-0.88c1.15,0.05,2.02,0.24,2.7,0.5v-1.4c-0.79-0.25-1.65-0.38-2.63-0.4
		C120.51,91.79,118.64,92.24,116.62,92.75z"/>
	<path class="st0" d="M116.62,95.94c-1.58,0.42-3.15,0.83-4.79,0.95v1.29c1.78-0.13,3.43-0.52,5.12-0.96
		c1.92-0.49,3.68-0.94,5.34-0.9c1.15,0.05,2.01,0.24,2.7,0.5v-1.4c-0.79-0.25-1.66-0.39-2.65-0.43
		C120.51,94.95,118.64,95.43,116.62,95.94z"/>
	<path class="st0" d="M116.62,102.3c-1.58,0.41-3.15,0.82-4.79,0.95v1.28c1.79-0.12,3.43-0.53,5.12-0.94
		c1.92-0.49,3.68-0.95,5.34-0.88c1.15,0.03,2.02,0.23,2.7,0.49v-1.39c-0.79-0.25-1.65-0.4-2.63-0.43
		C120.51,101.3,118.65,101.78,116.62,102.3z"/>
	<path class="st0" d="M116.66,99.12c-1.61,0.41-3.19,0.82-4.83,0.95v1.29c1.8-0.12,3.44-0.53,5.15-0.96c1.9-0.49,3.67-0.94,5.3-0.89
		c1.15,0.04,2.02,0.24,2.7,0.49V98.6c-0.79-0.25-1.65-0.38-2.63-0.42C120.52,98.11,118.66,98.6,116.66,99.12z"/>
</g>
<polygon class="st1" points="141.05,187.75 141,191.77 137.83,189.29 134.57,191.77 134.49,187.75 130.6,186.75 133.69,184.19 
	132.03,180.5 135.98,181.32 137.83,177.72 139.59,181.32 143.61,180.5 141.89,184.19 144.98,186.75 "/>
<polygon class="st1" points="163.08,216.14 159.08,214.63 157.3,218.55 155.57,214.63 151.52,216.14 153.03,212.11 149.14,210.27 
	153.03,208.51 151.52,204.44 155.57,205.95 157.3,202.01 159.08,205.95 163.08,204.44 161.63,208.51 165.49,210.29 161.63,212.11 
	"/>
<polygon class="st1" points="151.4,162.07 155.41,162.91 157.18,159.29 159.02,162.91 162.99,162.07 161.33,165.74 164.42,168.34 
	160.51,169.31 160.43,173.36 157.18,170.89 154.02,173.36 153.95,169.31 150.04,168.34 153.13,165.74 "/>
<polygon class="st1" points="167.41,194.74 164.26,193.18 161.2,194.74 161.77,191.29 159.28,188.83 162.72,188.29 164.26,185.21 
	165.88,188.29 169.27,188.83 166.87,191.29 "/>
<polygon class="st1" points="180.14,182.06 176.55,182.02 174.85,185.1 173.11,182.02 169.52,182.06 171.36,179.02 169.52,175.96 
	173.11,176.02 174.85,172.92 176.55,176.02 180.14,175.96 178.29,179.02 "/>
<path class="st1" d="M157.18,144.42l44.5,39.92c2.91-5.56,5.02-11.02,6.68-16.19l-51.18-45.95l-51.08,45.95
	c1.63,5.17,3.75,10.63,6.67,16.19L157.18,144.42z"/>
<path class="st1" d="M226.21,197.81l2.41-14.86l-6.89-6.18c0.72-1.92,1.42-3.85,1.97-5.89c2.06,1.86,9.02,8.1,10.01,8.97
	C231.65,186.19,228.9,192.46,226.21,197.81z"/>
<path class="st1" d="M222.88,202.77c-0.67-0.61-1.63-1.47-2.72-2.43c0.01-0.02,0.02-0.04,0.02-0.05c1.57-2.66,3.06-5.38,4.36-8.21
	L222.88,202.77z"/>
<path class="st1" d="M80.74,179.86c0.98-0.87,7.96-7.12,9.96-8.97c0.63,2.05,1.33,3.96,2.04,5.87l-6.9,6.2l2.39,14.82
	C85.53,192.4,82.77,186.13,80.74,179.86z"/>
<path class="st1" d="M91.53,202.77l-1.65-10.72c1.31,2.84,2.82,5.58,4.41,8.27C93.23,201.26,92.21,202.17,91.53,202.77z"/>
<path class="st1" d="M216.18,202.31c-12.75,20.32-30.75,35.18-52.07,42.99c0,0-6.14,2.22-6.93,2.52c-0.69-0.3-6.84-2.53-6.84-2.53
	c-21.31-7.8-39.31-22.66-52.08-43c-3.63-5.84-6.78-12.16-9.34-18.7c1.1-0.98,7.73-6.98,9.7-8.74c2.68,7.52,5.95,14.59,9.97,20.97
	c11.32,18.02,27.15,31.19,45.91,38.05c0.01,0,2.68,0.96,2.68,0.96l2.76-0.96c18.76-6.85,34.6-20.02,45.87-38.05
	c4.08-6.41,7.35-13.48,10.02-20.97c1.9,1.76,8.58,7.76,9.7,8.74C222.91,190.23,219.76,196.55,216.18,202.31z"/>
<path class="st0" d="M102.35,195.62l2.02-2.24l-0.17-0.68c-0.39-0.37-0.75-0.74-1.12-1.16c-2.09,0.37-5.39,0.9-6.87,0.97l-0.39-0.45
	l-0.39,0.22c0.21,0.34,0.39,0.69,0.58,1.04c0.22,0.41,0.43,0.84,0.64,1.24l0.38-0.23l-0.17-0.6l2.18-0.5l1.17,2.05
	c-0.4,0.5-1.13,1.22-1.57,1.64l-0.42-0.49l-0.42,0.23c0.29,0.51,0.59,1,0.88,1.51c0.26,0.48,0.53,0.98,0.79,1.48l0.42-0.24l-0.2-0.6
	C100.08,198.25,101.39,196.72,102.35,195.62z M99.93,193.07l2.79-0.58l0.01,0.02l-1.92,2.12L99.93,193.07z"/>
<path class="st0" d="M112.29,206.09l0.39-0.29c-0.27-0.35-0.54-0.7-0.79-1.05c-0.26-0.35-0.5-0.71-0.74-1.07l-0.41,0.27l0.3,0.62
	c-1.01,0.84-3.64,2.8-3.64,2.8l-0.02-0.01c0.66-1.85,1.44-3.98,2.13-5.91c-0.24-0.33-0.49-0.62-0.72-0.96
	c-0.22-0.33-0.42-0.65-0.64-1l-0.37,0.29l0.28,0.61c-0.46,0.42-0.97,0.81-1.59,1.25l-1.75,1.26c-0.64,0.45-1.15,0.8-1.71,1.1
	l-0.49-0.48l-0.37,0.28c0.26,0.35,0.52,0.69,0.77,1.05c0.23,0.35,0.47,0.71,0.73,1.07l0.38-0.28l-0.3-0.62
	c1.01-0.84,2.52-1.91,3.72-2.79l0.01,0.01c-0.76,1.94-1.47,3.96-2.24,6.01c0.18,0.21,0.36,0.45,0.53,0.68
	c0.18,0.21,0.32,0.47,0.44,0.65c0.57-0.46,1.31-1.02,2.17-1.66l1.69-1.23c0.64-0.45,1.18-0.79,1.73-1.11L112.29,206.09z"/>
<path class="st0" d="M112.76,211.9c-1.72,1.54-1.52,3.86-0.18,5.31c0.92,1,1.93,1.6,3.63,1.74l0.13-0.87
	c-0.98-0.13-1.68-0.52-2.12-1.04c-1.04-1.13-1.1-2.72,0.16-3.9c1.27-1.18,2.64-0.79,3.46,0.09c0.39,0.41,0.71,1.09,0.84,1.67
	l-0.39,0.46l0.35,0.4c0.42-0.37,1.06-0.73,1.58-0.92c-0.37-0.89-0.8-1.57-1.45-2.26C116.97,210.67,114.48,210.29,112.76,211.9z"/>
<path class="st0" d="M127.06,220.47c-2.01-1.72-4.37-1.44-5.74,0.2c-1.52,1.88-1.16,3.99,0.85,5.68c2.09,1.72,4.39,1.44,5.72-0.21
	C129.5,224.28,129.13,222.16,127.06,220.47z M126.39,224.86c-1.03,1.22-2.47,1.59-3.56,0.69c-1.08-0.9-0.98-2.37,0.06-3.59
	c1.05-1.24,2.48-1.61,3.56-0.7C127.47,222.16,127.36,223.63,126.39,224.86z"/>
<path class="st0" d="M137.65,228.21c-0.43-0.27-0.89-0.53-1.34-0.79c-0.45-0.27-0.9-0.52-1.34-0.79c-0.36-0.23-0.73-0.49-1.11-0.73
	l-0.26,0.41l0.51,0.47c-0.28,0.57-0.6,1.11-1.02,1.77l-1.04,1.81c-0.42,0.64-0.78,1.15-1.18,1.66l-0.64-0.25l-0.25,0.41
	c0.5,0.3,0.99,0.59,1.49,0.9c0.48,0.29,0.94,0.61,1.39,0.93l0.24-0.41l-0.46-0.46c0.24-0.57,0.55-1.13,0.97-1.79l0.36-0.57l0.47,0.3
	c0.12,1.1,0.24,2.95,0.31,4.26c0.68,0.32,1.38,0.67,2.03,1.08l0.25-0.4l-0.21-0.29c-0.12-0.51-0.47-3.15-0.58-3.88
	c1.02,0.43,2.08,0.26,2.6-0.63C139.37,230.37,139.38,229.31,137.65,228.21z M137.13,230.21c-0.47,0.73-1.2,0.7-2.1,0.14
	c-0.22-0.12-0.39-0.26-0.53-0.39l0.32-0.52c0.34-0.53,0.64-0.97,0.85-1.24c0.28,0.11,0.49,0.23,0.9,0.48
	C137.32,229.14,137.48,229.65,137.13,230.21z"/>
<path class="st0" d="M148.53,234l-0.55-0.45c-0.52-0.07-1.03-0.14-1.59-0.27c-1.49,1.58-3.76,3.95-4.96,4.9l-0.6-0.13l-0.19,0.44
	c0.36,0.16,0.74,0.31,1.11,0.48c0.42,0.19,0.86,0.4,1.28,0.6l0.21-0.44l-0.52-0.37l1.46-1.7l2.11,0.97
	c-0.03,0.64-0.17,1.63-0.29,2.24l-0.64-0.15l-0.19,0.43c0.54,0.24,1.09,0.45,1.63,0.7c0.49,0.23,1.01,0.48,1.52,0.72l0.19-0.44
	l-0.5-0.37c-0.03-0.68,0.1-2.69,0.24-4.14L148.53,234z M146.38,237.14l-1.63-0.74l1.9-2.13l0.02,0.01L146.38,237.14z"/>
<path class="st0" d="M169.64,239.71c-0.32-0.55-0.58-1.11-0.86-1.83l-0.84-1.92c-0.32-0.72-0.55-1.3-0.75-1.9l0.58-0.38l-0.21-0.44
	c-0.53,0.25-1.05,0.49-1.57,0.71c-0.53,0.23-1.07,0.43-1.61,0.67l0.2,0.42l0.68-0.15c0.31,0.55,0.59,1.12,0.91,1.83l0.85,1.94
	c0.32,0.71,0.53,1.28,0.75,1.89l-0.57,0.38l0.19,0.44c0.55-0.24,1.06-0.49,1.55-0.72c0.48-0.23,1.02-0.43,1.56-0.66l-0.2-0.43
	L169.64,239.71z"/>
<path class="st0" d="M182.94,232.48c-0.39-0.52-0.73-1.05-1.14-1.7l-1.03-1.83c-0.4-0.65-0.7-1.2-0.97-1.77l0.52-0.46l-0.26-0.41
	c-0.43,0.28-0.86,0.56-1.31,0.81c-0.43,0.26-0.9,0.51-1.34,0.76c0.25,0.95,0.99,4.61,1.15,5.38c-0.83-0.57-3.5-2.86-4.18-3.53
	c-0.44,0.27-0.87,0.54-1.29,0.8c-0.44,0.26-0.89,0.49-1.34,0.75l0.25,0.4l0.6-0.2l0.52,0.86c0.51,0.86,2.1,3.7,2.5,4.5l-0.5,0.46
	l0.24,0.4c0.37-0.22,0.73-0.46,1.1-0.68c0.38-0.24,0.77-0.44,1.16-0.65l-0.25-0.41l-0.65,0.24c-0.38-0.51-0.73-1.04-1.14-1.71
	l-0.6-1.04c-0.5-0.91-0.87-1.55-1.05-1.87l0.02-0.01c2.68,2.26,4.14,3.44,4.87,4.08l1-0.59l-1.28-6.26l0.01-0.01
	c0.21,0.31,0.61,0.94,1.15,1.84l0.63,1.03c0.41,0.67,0.68,1.23,0.91,1.81l-0.45,0.44l0.21,0.42c0.44-0.31,0.92-0.61,1.43-0.91
	c0.5-0.29,1.01-0.57,1.51-0.87l-0.23-0.41L182.94,232.48z"/>
<path class="st0" d="M190.11,227.17c-0.44-0.47-0.87-0.93-1.37-1.54l-0.97-1.19c-0.41-0.49-0.88-1.16-1.24-1.71
	c0.12-0.2,0.34-0.43,0.57-0.65c0.73-0.6,1.45-0.53,1.94,0.08c0.51,0.6,0.64,1.33-0.1,1.93c-0.16,0.12-0.32,0.23-0.47,0.31l0.36,0.91
	c0.31-0.16,0.65-0.39,0.95-0.63c1.58-1.27,1.63-2.87,0.76-3.94c-0.83-1.01-2-1.09-3.3-0.03c-0.25,0.27-0.62,0.57-1.08,0.95
	c-0.44,0.4-0.88,0.74-1.22,1.01c-0.34,0.26-0.76,0.58-1.2,0.95l0.3,0.37l0.61-0.32c0.45,0.45,0.86,0.92,1.37,1.51l1.25,1.66
	c0.5,0.6,0.87,1.1,1.23,1.62l-0.44,0.52l0.3,0.38c0.45-0.39,0.88-0.76,1.34-1.12c0.43-0.35,0.9-0.68,1.59-1.23l-0.32-0.37
	L190.11,227.17z"/>
<path class="st0" d="M201.86,216.2c-0.65-0.21-2.53-0.98-3.8-1.62l-2.77-1.31l-0.6,0.37c-0.24,0.44-0.49,0.91-0.8,1.4
	c0.99,1.92,2.46,4.89,2.97,6.34l-0.34,0.5l0.35,0.33c0.26-0.28,0.52-0.59,0.81-0.86c0.32-0.33,0.67-0.67,1.01-1l-0.34-0.34
	l-0.53,0.37l-1.11-1.95l1.67-1.71c0.6,0.24,1.42,0.73,1.95,1.03l-0.36,0.54l0.35,0.34c0.41-0.43,0.8-0.87,1.2-1.29
	c0.4-0.4,0.8-0.79,1.21-1.17l-0.36-0.33L201.86,216.2z M196.29,217.63l-1.36-2.53l0.01-0.03l2.61,1.26L196.29,217.63z"/>
<path class="st0" d="M210.11,206c-0.51,0.06-3.22,0.17-3.96,0.2c0.53-0.96,0.46-2.03-0.39-2.67c-0.73-0.6-1.79-0.7-3.07,0.93
	c-0.31,0.42-0.63,0.84-0.93,1.27c-0.31,0.42-0.61,0.83-0.91,1.22c-0.28,0.35-0.56,0.69-0.84,1.03l0.39,0.29l0.51-0.47
	c0.55,0.35,1.06,0.7,1.69,1.18l1.7,1.28c0.63,0.46,1.04,0.88,1.51,1.31l-0.32,0.61l0.39,0.29c0.34-0.46,0.68-0.93,1.03-1.39
	c0.34-0.45,0.72-0.88,1.08-1.34l-0.4-0.29l-0.49,0.46c-0.56-0.32-1.07-0.68-1.7-1.15l-0.47-0.42l0.31-0.45
	c1.07-0.02,2.95,0.05,4.3,0.09c0.37-0.63,0.78-1.29,1.27-1.87l-0.39-0.29L210.11,206z M204.61,207.25
	c-0.16,0.19-0.32,0.36-0.46,0.48l-0.49-0.36c-0.49-0.37-0.91-0.72-1.17-0.94c0.15-0.26,0.28-0.46,0.56-0.84
	c0.54-0.7,1.07-0.82,1.59-0.41C205.27,205.71,205.22,206.43,204.61,207.25z"/>
<path class="st0" d="M214.58,192.95c-2.16-1.25-4.11-0.55-5.48,1.74c-1.37,2.32-0.7,4.56,1.15,5.63c2.05,1.24,4.11,0.55,5.48-1.74
	C217.1,196.28,216.44,194.03,214.58,192.95z M214.8,198.05c-0.71,1.21-2.18,1.34-3.52,0.52c-1.4-0.81-2-2.15-1.28-3.37
	c0.73-1.19,2.14-1.32,3.53-0.52C214.92,195.49,215.53,196.86,214.8,198.05z"/>
<path class="st0" d="M157.18,238.78c-0.83,0-1.56,0.74-1.56,1.63c0,0.92,0.73,1.68,1.56,1.68c0.93,0,1.68-0.76,1.68-1.68
	C158.87,239.52,158.11,238.78,157.18,238.78z"/>
<path class="st0" d="M96.58,186.95c0.89,0,1.65-0.76,1.65-1.63c0-0.92-0.76-1.68-1.65-1.68c-0.87,0-1.62,0.76-1.62,1.68
	C94.96,186.19,95.7,186.95,96.58,186.95z"/>
<path class="st0" d="M218.13,186.95c0.91,0,1.67-0.76,1.67-1.63c0-0.92-0.75-1.68-1.67-1.68c-0.85,0-1.62,0.76-1.62,1.68
	C216.51,186.19,217.28,186.95,218.13,186.95z"/>
<path class="st2" d="M0,0v344.65h808.06V0H0z M487.11,66.02c-30.67,24.68-61.49,49.17-92.05,73.98
	c-14.29,11.6-28.37,23.45-42.81,34.86c-12.86,10.17-26.09,20.7-34.35,35.15c-3.2,5.59-11.83,0.55-8.63-5.05
	c8.17-14.28,20.69-25.07,33.41-35.18c14.73-11.72,29.21-23.75,43.81-35.62c31.05-25.24,62.39-50.12,93.56-75.21
	C485.01,54.95,492.12,61.99,487.11,66.02z"/>
</svg>
